# xmcd
#
# Track frame offsets:
#	182
#	11945
#	20655
#	34735
#	44977
#	58662
#	70182
#	82725
#	96330
#	110265
#	121307
#	133745
#	150035
#	163117
#	172927
#	187590
#	198050
#	211022
#	220440
#	231752
#	247167
#	257897
#	266317
#	275477
#	283995
#
# Disc length: 3968 seconds
#
# Revision: 5
# Processed by: cddbd v1.5.2PL0 Copyright (c) Steve Scherf et al.
# Submitted via: audiograbber 1.83.01
#
DISCID=640f7e19
DTITLE=Various Artist - 50 Country Hits - Volume 1
DYEAR=1998
DGENRE=Country
TTITLE0=Billy Jo Spears - Try A Little Kindness
TTITLE1=Roger Miller - England Swings
TTITLE2=Barbara Fairchild - Teddy Bear Song
TTITLE3=Porter Wagoner - The Green, Green Grass of Home
TTITLE4=Jimmy Dean - Big Bad John
TTITLE5=Kitty Wells - Heartbreak USA
TTITLE6=Hank Thompson - Oklahoma Hills
TTITLE7=Johnny Russell - Catfish John
TTITLE8=Jeannie Seely - One Day At A Time
TTITLE9=Jack Greene - What Locks The Door
TTITLE10=Frankie Miller - Blackland Farmer
TTITLE11=Ben Colder - Don't Go Near The Eskimos
TTITLE12=Billy Ed Wheeler - Ode To The Little Brown Shack Out Back
TTITLE13=Ned Miller - From A Jack To A King
TTITLE14=Jeannie C. Riley - Harper Valley P.T.A.
TTITLE15=George Hamilton IV - Abilene
TTITLE16=Claude King - Wolverton Mountain
TTITLE17=The Harden Trio - Tippy Toeing
TTITLE18=Wynn Stewart - It's Such A Pretty World Today
TTITLE19=Melba Montgomery - No Charge
TTITLE20=Ferlin Husky - Wings of a Dove
TTITLE21=Frankie Miller - Family Man
TTITLE22=Del Reeves - Good Time Charlie's
TTITLE23=Warren Smith - Odds And Ends, Bits And Pieces
TTITLE24=Lynn Anderson - Rose Garden
EXTD=
EXTT0=
EXTT1=
EXTT2=
EXTT3=
EXTT4=
EXTT5=
EXTT6=
EXTT7=
EXTT8=
EXTT9=
EXTT10=
EXTT11=
EXTT12=
EXTT13=
EXTT14=
EXTT15=
EXTT16=
EXTT17=
EXTT18=
EXTT19=
EXTT20=
EXTT21=
EXTT22=
EXTT23=
EXTT24=
PLAYORDER=
